<svg width="219" height="41" viewBox="0 0 219 41" fill="none" xmlns="http://www.w3.org/2000/svg">
<g clip-path="url(#clip0_2_56)">
<path d="M8.43418e-07 0L0 19.5238C10.6564 19.5238 19.2952 10.7827 19.2952 8.53413e-07L8.43418e-07 0Z" fill="white"/>
<path opacity="0.64" d="M0 41C10.6564 41 19.2952 32.259 19.2952 21.4762H0V41Z" fill="white"/>
<path d="M40.5198 0H21.2246V19.5238C31.8811 19.5238 40.5198 10.7827 40.5198 0Z" fill="white"/>
<path opacity="0.64" d="M21.2246 41C31.8811 41 40.5198 32.259 40.5198 21.4762H21.2246V41Z" fill="white"/>
<g opacity="0.64">
<path opacity="0.64" d="M70.7215 32.4583H66.9397L66.6358 29.6908C66.028 30.6245 65.1163 31.4104 63.9007 32.0483C62.7075 32.6633 61.2669 32.9708 59.5786 32.9708C56.247 32.9708 53.4217 31.8204 51.1032 29.52C48.7846 27.2194 47.6252 24.1671 47.6252 20.3632C47.6252 16.5821 48.8184 13.5299 51.2045 11.2066C53.6133 8.88322 56.5058 7.72156 59.8825 7.72156C62.8088 7.72156 65.1952 8.43906 67.041 9.87408C68.9095 11.3091 70.1699 13.0744 70.8228 15.1699L66.3657 16.7757C66.0056 15.523 65.2738 14.441 64.1708 13.5299C63.0903 12.596 61.6608 12.1291 59.8825 12.1291C57.8565 12.1291 56.0893 12.8352 54.5811 14.2474C53.0954 15.6596 52.3526 17.6982 52.3526 20.3632C52.3526 22.9827 53.073 25.0212 54.5136 26.4792C55.9769 27.9368 57.7776 28.6658 59.9163 28.6658C61.8971 28.6658 63.4166 28.1645 64.4747 27.1625C65.5328 26.1375 66.1517 25.0669 66.3319 23.9507H58.7682V19.8507L70.7215 19.8507V32.4583Z" fill="white"/>
<path opacity="0.64" d="M83.1898 15.5799V20.1583C82.7395 20.0671 82.2894 20.0216 81.8391 20.0216C80.556 20.0216 79.5206 20.3974 78.7326 21.1491C77.9446 21.878 77.5508 23.0852 77.5508 24.7708V32.4583H73.0598V15.6483H77.4157V18.1424C78.2261 16.3885 79.8018 15.5116 82.143 15.5116C82.3907 15.5116 82.7395 15.5344 83.1898 15.5799Z" fill="white"/>
<path opacity="0.64" d="M87.4334 22.1399H94.862C94.8169 21.206 94.4793 20.4202 93.849 19.7824C93.2412 19.1446 92.3409 18.8257 91.1477 18.8257C90.0672 18.8257 89.1893 19.1674 88.5139 19.8507C87.8386 20.5341 87.4785 21.2971 87.4334 22.1399ZM95.301 26.5133L99.0491 27.6408C98.5988 29.1895 97.7098 30.4652 96.3815 31.4675C95.076 32.4695 93.4438 32.9708 91.4854 32.9708C89.0993 32.9708 87.0733 32.162 85.4074 30.545C83.7415 28.905 82.9087 26.7183 82.9087 23.9849C82.9087 21.3882 83.7191 19.2699 85.3399 17.6299C86.9607 15.9671 88.874 15.1357 91.0802 15.1357C93.6464 15.1357 95.65 15.9102 97.0906 17.4591C98.5539 19.0079 99.2854 21.1377 99.2854 23.8482C99.2854 24.0304 99.2741 24.2354 99.2517 24.4633C99.2517 24.691 99.2517 24.8733 99.2517 25.01L99.2179 25.2491H87.3321C87.3772 26.3425 87.8048 27.2535 88.6152 27.9825C89.4256 28.7112 90.3935 29.0758 91.5192 29.0758C93.4325 29.0758 94.6932 28.2216 95.301 26.5133Z" fill="white"/>
<path opacity="0.64" d="M106.305 39.0867H101.544L105.461 30.34L98.4041 15.6483H103.435L107.859 25.4883L111.944 15.6483H116.739L106.305 39.0867Z" fill="white"/>
</g>
<path d="M136.261 14.0083L132.074 15.3067C131.917 14.4411 131.489 13.6553 130.791 12.9492C130.093 12.2431 129.069 11.89 127.718 11.89C126.615 11.89 125.715 12.1975 125.017 12.8125C124.319 13.4047 123.97 14.1222 123.97 14.965C123.97 16.4456 124.837 17.3567 126.57 17.6983L129.913 18.3475C132.029 18.7575 133.673 19.6117 134.843 20.91C136.014 22.2083 136.599 23.7344 136.599 25.4883C136.599 27.4927 135.811 29.2467 134.235 30.75C132.682 32.2306 130.589 32.9708 127.955 32.9708C126.447 32.9708 125.085 32.7431 123.869 32.2875C122.653 31.8319 121.674 31.2283 120.931 30.4767C120.188 29.7023 119.603 28.8935 119.175 28.0508C118.77 27.1852 118.523 26.2969 118.433 25.3858L122.755 24.2242C122.867 25.5225 123.363 26.6044 124.24 27.47C125.141 28.3356 126.39 28.7683 127.989 28.7683C129.204 28.7683 130.15 28.495 130.825 27.9483C131.523 27.4017 131.872 26.6842 131.872 25.7958C131.872 25.0898 131.613 24.486 131.095 23.985C130.6 23.4611 129.891 23.1081 128.968 22.9258L125.625 22.2425C123.689 21.8325 122.158 21.0239 121.033 19.8167C119.907 18.6094 119.344 17.1061 119.344 15.3067C119.344 13.1656 120.155 11.3661 121.775 9.90835C123.419 8.45055 125.389 7.72168 127.685 7.72168C129.058 7.72168 130.285 7.91528 131.365 8.30251C132.446 8.68972 133.312 9.21362 133.965 9.87418C134.618 10.5119 135.125 11.1725 135.485 11.8558C135.845 12.5392 136.104 13.2567 136.261 14.0083Z" fill="white"/>
<path d="M147.129 15.6483H151.856L155.435 26.4792L158.508 15.6483H162.965L157.765 32.4583H153.274L149.391 20.9783L145.576 32.4583H141.017L135.716 15.6483H140.443L143.516 26.445L147.129 15.6483Z" fill="white"/>
<path d="M168.235 32.4583H163.744V15.6483H168.235V32.4583ZM163.204 10.1475C163.204 9.37305 163.474 8.71251 164.014 8.16584C164.554 7.59638 165.207 7.31168 165.972 7.31168C166.738 7.31168 167.391 7.58501 167.931 8.13168C168.471 8.67834 168.741 9.35028 168.741 10.1475C168.741 10.8992 168.471 11.5483 167.931 12.095C167.391 12.6417 166.738 12.915 165.972 12.915C165.207 12.915 164.554 12.6417 164.014 12.095C163.474 11.5483 163.204 10.8992 163.204 10.1475Z" fill="white"/>
<path d="M176.554 10.6258V15.6483H179.897V19.68H176.554V26.7183C176.554 27.4243 176.712 27.9256 177.027 28.2217C177.342 28.5177 177.838 28.6658 178.513 28.6658C179.121 28.6658 179.582 28.6202 179.897 28.5292V32.2875C179.245 32.5608 178.401 32.6975 177.365 32.6975C175.744 32.6975 174.461 32.2418 173.515 31.3308C172.57 30.3968 172.097 29.1215 172.097 27.5042V19.68H169.092V15.6483H169.936C170.769 15.6483 171.4 15.4092 171.827 14.9308C172.277 14.4297 172.502 13.7805 172.502 12.9833V10.6258H176.554Z" fill="white"/>
<path d="M188.984 19.3383C187.791 19.3383 186.789 19.7597 185.979 20.6025C185.168 21.4453 184.763 22.5955 184.763 24.0533C184.763 25.511 185.168 26.6727 185.979 27.5383C186.812 28.381 187.825 28.8025 189.018 28.8025C190.076 28.8025 190.92 28.5292 191.55 27.9825C192.18 27.4131 192.608 26.741 192.833 25.9667L196.784 27.2992C196.379 28.8481 195.501 30.1806 194.15 31.2967C192.8 32.4127 191.089 32.9708 189.018 32.9708C186.541 32.9708 184.459 32.1281 182.771 30.4425C181.105 28.7342 180.272 26.6044 180.272 24.0533C180.272 21.4794 181.094 19.3497 182.737 17.6642C184.403 15.9786 186.451 15.1358 188.883 15.1358C190.999 15.1358 192.732 15.6939 194.083 16.81C195.433 17.9033 196.3 19.2358 196.683 20.8075L192.665 22.1742C192.124 20.2836 190.897 19.3383 188.984 19.3383Z" fill="white"/>
<path d="M202.551 22.5842V32.4583H198.06V7.72168H202.551V17.0492C203.564 15.8192 205.061 15.2042 207.042 15.2042C209.068 15.2042 210.599 15.8306 211.634 17.0833C212.693 18.3133 213.221 19.9078 213.221 21.8667V32.4583H208.731V22.6525C208.731 21.6503 208.472 20.8417 207.954 20.2267C207.459 19.6117 206.693 19.3042 205.658 19.3042C204.735 19.3042 203.992 19.6117 203.429 20.2267C202.889 20.8417 202.596 21.6275 202.551 22.5842Z" fill="white"/>
<path d="M217.07 32.4583C216.803 32.4583 216.552 32.4073 216.317 32.3051C216.086 32.2057 215.881 32.0676 215.702 31.8902C215.527 31.7098 215.389 31.5024 215.288 31.2679C215.19 31.0304 215.141 30.7766 215.141 30.5059C215.141 30.2353 215.19 29.9829 215.288 29.7484C215.389 29.511 215.527 29.3035 215.702 29.1261C215.881 28.9457 216.086 28.8061 216.317 28.7068C216.552 28.6046 216.803 28.5536 217.07 28.5536C217.338 28.5536 217.587 28.6046 217.819 28.7068C218.054 28.8061 218.259 28.9457 218.434 29.1261C218.612 29.3035 218.75 29.511 218.848 29.7484C218.95 29.9829 219 30.2353 219 30.5059C219 30.7766 218.95 31.0304 218.848 31.2679C218.75 31.5024 218.612 31.7098 218.434 31.8902C218.259 32.0676 218.054 32.2057 217.819 32.3051C217.587 32.4073 217.338 32.4583 217.07 32.4583ZM217.07 32.0571C217.284 32.0571 217.483 32.0181 217.668 31.9397C217.852 31.8587 218.014 31.7474 218.153 31.6061C218.296 31.4619 218.406 31.2964 218.483 31.1102C218.563 30.9237 218.603 30.7224 218.603 30.5059C218.603 30.2895 218.563 30.0881 218.483 29.9017C218.406 29.7155 218.296 29.5515 218.153 29.4102C218.014 29.2659 217.852 29.1546 217.668 29.0766C217.483 28.9955 217.284 28.9548 217.07 28.9548C216.856 28.9548 216.657 28.9955 216.473 29.0766C216.289 29.1546 216.126 29.2659 215.983 29.4102C215.843 29.5515 215.733 29.7155 215.653 29.9017C215.576 30.0881 215.537 30.2895 215.537 30.5059C215.537 30.7224 215.576 30.9237 215.653 31.1102C215.733 31.2964 215.843 31.4619 215.983 31.6061C216.126 31.7474 216.289 31.8587 216.473 31.9397C216.657 32.0181 216.856 32.0571 217.07 32.0571ZM216.473 31.4123V29.5952H217.044C217.29 29.5952 217.471 29.6386 217.587 29.726C217.703 29.8131 217.761 29.9468 217.761 30.1272C217.761 30.2353 217.731 30.33 217.672 30.4112C217.615 30.4925 217.534 30.5587 217.427 30.6097L217.944 31.4123H217.48L217.075 30.7178H216.879V31.4123H216.473ZM216.879 30.4112H217.035C217.133 30.4112 217.209 30.3903 217.262 30.348C217.318 30.3031 217.347 30.2338 217.347 30.1406C217.347 29.9844 217.241 29.9063 217.03 29.9063H216.879V30.4112Z" fill="white"/>
</g>
<defs>
<clipPath id="clip0_2_56">
<rect width="219" height="41" fill="white"/>
</clipPath>
</defs>
</svg>
